#!OML:ASF I:\golf\golf\golf 2\Subject 1\2002-09-07\Subject1.ASF
:FULLY-SPECIFIED
:DEGREES
169
root -7.84746 17.6266 2.45893 -7.45678 58.2656 -23.7942
lowerback 3.53432 -8.58026 -10.4182
upperback 3.81293 -11.5747 0.531875
thorax 4.23193 -6.11803 6.0124
lowerneck -7.29634 17.5699 3.21756
upperneck 18.8208 27.7495 -15.9357
head 10.011 11.8737 -2.39501
rclavicle -7.79236e-014 3.18055e-015
rhumerus 6.0405 -8.05743 -84.9055
rradius 98.7634
rwrist -22.6366
rhand -58.9911 46.1473
rfingers 7.12502
rthumb -31.1908 18.7824
lclavicle -7.79236e-014 3.18055e-015
lhumerus 90.8783 -51.8938 41.1514
lradius 26.2208
lwrist -12.0061
lhand 149.943 184.059
lfingers 7.12502
lthumb -183.372 214.012
rfemur -33.9586 12.1506 27.8939
rtibia 34.026
rfoot -10.5892 12.8758
rtoes 15.6805
lfemur -8.0611 6.1621 7.4648
ltibia 21.2795
lfoot -14.0932 26.1638
ltoes -10.1054
170
root -7.84051 17.6298 2.48198 -6.43259 57.7645 -22.9129
lowerback 3.37693 -8.70817 -10.4796
upperback 3.64328 -11.7275 0.252945
thorax 4.118 -6.17344 5.73734
lowerneck -7.23813 17.7231 3.33498
upperneck 18.4375 27.8317 -15.8871
head 9.87781 11.9545 -2.39355
rclavicle 0 3.49861e-014
rhumerus 7.02808 -8.34493 -84.5626
rradius 99.4132
rwrist -21.0666
rhand -59.226 44.8895
rfingers 7.12502
rthumb -31.4147 17.5679
lclavicle 0 3.49861e-014
lhumerus 91.9831 -51.3745 40.7814
lradius 26.5605
lwrist -12.1674
lhand 149.413 183.664
lfingers 7.12502
lthumb -183.884 213.608
rfemur -34.1927 12.4321 27.5751
rtibia 34.0582
rfoot -10.5055 13.2799
rtoes 16.4202
lfemur -7.88528 6.20219 7.08784
ltibia 21.1758
lfoot -13.9236 26.6121
ltoes -10.7006
171
root -7.8297 17.6423 2.5001 -4.64542 57.3725 -21.2028
lowerback 3.19006 -8.90038 -10.9343
upperback 3.42819 -11.9658 -0.0916351
thorax 4.0576 -6.2803 5.58673
lowerneck -7.4266 17.9 3.22838
upperneck 18.1829 27.989 -15.7407
head 9.79611 12.0379 -2.29931
rclavicle 1.12115e-013 0
rhumerus 8.02906 -8.47339 -84.0873
rradius 100.064
rwrist -19.544
rhand -59.4063 44.3432
rfingers 7.12502
rthumb -31.5865 17.0552
lclavicle 1.12115e-013 0
lhumerus 93.0148 -50.7024 40.448
lradius 26.8543
lwrist -12.6008
lhand 148.77 183.417
lfingers 7.12502
lthumb -184.506 213.349
rfemur -34.5251 12.6115 26.7024
rtibia 34.097
rfoot -10.4735 13.6886
rtoes 16.6056
lfemur -7.80439 6.06027 6.11957
ltibia 21.056
lfoot -13.9225 27.0888
ltoes -10.7507
172
root -7.82141 17.651 2.51846 -3.58476 56.9715 -20.2247
lowerback 3.15409 -9.07619 -11.1135
upperback 3.22285 -12.2032 -0.280292
thorax 3.89821 -6.38087 5.48085
lowerneck -7.47708 18.0691 3.19737
upperneck 17.8861 28.1559 -15.7454
head 9.71286 12.1302 -2.2716
rclavicle -6.99722e-014 2.8625e-014
rhumerus 8.96664 -8.64123 -83.4825
rradius 100.697
rwrist -18.0624
rhand -59.5314 43.6283
rfingers 7.12502
rthumb -31.7057 16.3637
lclavicle -6.99722e-014 2.8625e-014
lhumerus 94.1698 -50.0996 40.0638
lradius 27.0713
lwrist -13.264
lhand 147.656 183.671
lfingers 7.12502
lthumb -185.581 213.577
rfemur -34.7408 12.8407 26.2406
rtibia 34.1328
rfoot -10.4535 13.9845
rtoes 16.7774
lfemur -7.61997 5.91012 5.60828
ltibia 20.8711
lfoot -13.7817 27.4938
ltoes -11.1777
173
root -7.81485 17.6564 2.53837 -3.03355 56.5289 -19.7641
lowerback 3.20125 -9.18622 -11.0941
upperback 3.02843 -12.3642 -0.392621
thorax 3.6633 -6.43869 5.37449
lowerneck -7.30026 18.2237 3.31783
upperneck 17.5055 28.2787 -15.8262
head 9.58929 12.2274 -2.31493
rclavicle 8.82604e-014 -2.22639e-014
rhumerus 9.90167 -8.97044 -82.887
rradius 101.156
rwrist -16.331
rhand -59.7843 43.6802
rfingers 7.12502
rthumb -31.9465 16.4636
lclavicle 8.82604e-014 -2.22639e-014
lhumerus 95.254 -49.6528 39.9114
lradius 27.2938
lwrist -13.8231
lhand 146.741 183.849
lfingers 7.12502
lthumb -186.465 213.73
rfemur -34.8537 13.285 26.0465
rtibia 34.1366
rfoot -10.4388 14.0496
rtoes 17.0244
lfemur -7.35745 5.71635 5.44124
ltibia 20.7018
lfoot -13.8645 27.7931
ltoes -11.1169
